<svg xmlns="http://www.w3.org/2000/svg" version="1.1" width="2000" height="575"
     viewBox="0 0 2000 575">
    <g transform="matrix(1,0,0,1,-1.2121212121212466,-0.8342007676793628)">
        <svg viewBox="0 0 396 114" data-background-color="#f9f9f9" preserveAspectRatio="xMidYMid meet" height="575"
             width="2000" xmlns="http://www.w3.org/2000/svg">
            <g id="tight-bounds" transform="matrix(1,0,0,1,0.2400000000000091,0.16538936959207717)">
                <svg viewBox="0 0 395.52 113.66922126081582" height="113.66922126081582" width="395.52">
                    <g>
                        <svg viewBox="0 0 395.52 113.66922126081582" height="113.66922126081582" width="395.52">
                            <g>
                                <svg viewBox="0 0 395.52 113.66922126081582" height="113.66922126081582" width="395.52">
                                    <g id="textblocktransform">
                                        <svg viewBox="0 0 395.52 113.66922126081582" height="113.66922126081582"
                                             width="395.52" id="textblock">
                                            <g>
                                                <svg viewBox="0 0 395.52 113.66922126081582" height="113.66922126081582"
                                                     width="395.52">
                                                    <g transform="matrix(1,0,0,1,0,0)">
                                                        <svg width="395.52" viewBox="2.3 -47 242.67999999999998 69.75"
                                                             height="113.66922126081582" data-palette-color="#9747ff">
                                                            <path d="M41.15-29.8Q41.15-25.55 38.95-22 36.75-18.45 32.55-16.2 28.35-13.95 22.55-13.55L22.55-13.55 20.4-1.5Q19.15 5.45 13.6 5.45L13.6 5.45Q10.55 5.45 7.98 3.65 5.4 1.85 3.85-1.85 2.3-5.55 2.3-10.95L2.3-10.95Q2.3-21.1 5.58-28.18 8.85-35.25 14.38-38.78 19.9-42.3 26.55-42.3L26.55-42.3Q31.25-42.3 34.52-40.65 37.8-39 39.48-36.18 41.15-33.35 41.15-29.8L41.15-29.8ZM23.45-18.7Q33.7-20 33.7-29.35L33.7-29.35Q33.7-32.65 31.53-34.73 29.35-36.8 24.8-36.8L24.8-36.8Q19.65-36.8 15.83-33.55 12-30.3 9.93-24.53 7.85-18.75 7.85-11.35L7.85-11.35Q7.85-8.25 8.47-5.85 9.1-3.45 10.08-2.13 11.05-0.8 11.95-0.8L11.95-0.8Q13.2-0.8 13.85-4.25L13.85-4.25 15.5-13.7Q13.55-14 13.8-13.95L13.8-13.95Q12.3-14.2 11.85-14.88 11.4-15.55 11.4-16.6L11.4-16.6Q11.4-17.7 12.03-18.35 12.65-19 13.75-19L13.75-19Q14.25-19 14.5-18.95L14.5-18.95Q15.7-18.75 16.35-18.7L16.35-18.7Q17-22.6 18.2-29.15L18.2-29.15Q18.5-30.85 19.58-31.58 20.65-32.3 22.1-32.3L22.1-32.3Q23.75-32.3 24.48-31.68 25.2-31.05 25.2-29.7L25.2-29.7Q25.2-28.9 25.1-28.4L25.1-28.4 23.45-18.7ZM43.2 0.25Q41.3 0.25 40.52-1.75 39.75-3.75 39.75-8.15L39.75-8.15Q39.75-14.65 41.6-20.5L41.6-20.5Q42.05-21.95 43.07-22.63 44.1-23.3 45.95-23.3L45.95-23.3Q46.95-23.3 47.35-23.05 47.75-22.8 47.75-22.1L47.75-22.1Q47.75-21.3 47-18.5L47-18.5Q46.5-16.5 46.2-15 45.9-13.5 45.7-11.3L45.7-11.3Q47.35-15.6 49.4-18.3 51.45-21 53.42-22.15 55.4-23.3 57.05-23.3L57.05-23.3Q60.3-23.3 60.3-20.05L60.3-20.05Q60.3-19.4 59.85-16.9L59.85-16.9Q59.45-14.9 59.45-14.4L59.45-14.4Q59.45-12.65 60.7-12.65L60.7-12.65Q62.1-12.65 64.3-14.85L64.3-14.85Q64.95-15.5 65.65-15.5L65.65-15.5Q66.3-15.5 66.67-14.93 67.05-14.35 67.05-13.4L67.05-13.4Q67.05-11.55 66.05-10.5L66.05-10.5Q64.65-9.05 62.77-8.03 60.9-7 58.8-7L58.8-7Q56.15-7 54.77-8.35 53.4-9.7 53.4-12L53.4-12Q53.4-12.75 53.55-13.5L53.55-13.5Q53.65-14.5 53.65-14.85L53.65-14.85Q53.65-15.65 53.1-15.65L53.1-15.65Q52.35-15.65 51.12-13.98 49.9-12.3 48.7-9.55 47.5-6.8 46.75-3.75L46.75-3.75Q46.2-1.4 45.47-0.58 44.75 0.25 43.2 0.25L43.2 0.25ZM87.9-15.35Q88.55-15.35 88.9-14.7 89.25-14.05 89.25-13.05L89.25-13.05Q89.25-10.65 87.8-10.2L87.8-10.2Q84.8-9.15 81.2-9L81.2-9Q80.25-4.8 77.45-2.27 74.65 0.25 71.09 0.25L71.09 0.25Q68.09 0.25 65.97-1.2 63.85-2.65 62.75-5.05 61.65-7.45 61.65-10.25L61.65-10.25Q61.65-14.05 63.1-17.03 64.55-20 67.09-21.68 69.65-23.35 72.75-23.35L72.75-23.35Q76.55-23.35 78.87-20.73 81.2-18.1 81.59-14.25L81.59-14.25Q83.95-14.4 87.2-15.25L87.2-15.25Q87.59-15.35 87.9-15.35L87.9-15.35ZM71.5-5.05Q73.09-5.05 74.27-6.35 75.45-7.65 75.84-10.1L75.84-10.1Q74.3-11.15 73.47-12.85 72.65-14.55 72.65-16.45L72.65-16.45Q72.65-17.25 72.8-18.05L72.8-18.05 72.55-18.05Q70.55-18.05 69.22-16.13 67.9-14.2 67.9-10.7L67.9-10.7Q67.9-7.95 68.97-6.5 70.05-5.05 71.5-5.05L71.5-5.05ZM90.29-26.6Q88.19-26.6 87.14-27.58 86.09-28.55 86.09-30.3L86.09-30.3Q86.09-32.05 87.47-33.23 88.84-34.4 90.89-34.4L90.89-34.4Q92.74-34.4 93.89-33.5 95.04-32.6 95.04-30.95L95.04-30.95Q95.04-28.95 93.74-27.78 92.44-26.6 90.29-26.6L90.29-26.6ZM99.29-11.05Q99.94-11.05 100.32-10.43 100.69-9.8 100.69-8.85L100.69-8.85Q100.69-7.7 100.34-7.05 99.99-6.4 99.24-5.9L99.24-5.9Q95.74-3.6 89.89 0.45L89.89 0.45Q87.94 10.85 84.84 16.8 81.74 22.75 76.94 22.75L76.94 22.75Q74.34 22.75 72.77 21.18 71.19 19.6 71.19 17.05L71.19 17.05Q71.19 13.5 73.94 9.47 76.69 5.45 84.29-0.45L84.29-0.45 84.64-3Q85.34-7.8 85.74-12.45L85.74-12.45Q86.04-15.15 86.69-20.5L86.69-20.5Q86.89-21.95 87.79-22.63 88.69-23.3 90.54-23.3L90.54-23.3Q92.04-23.3 92.52-22.85 92.99-22.4 92.99-21.6L92.99-21.6Q92.99-19.3 91.34-8.9L91.34-8.9 90.84-5.45Q94.84-8.45 98.14-10.65L98.14-10.65Q98.79-11.05 99.29-11.05L99.29-11.05ZM77.49 17.9Q78.79 17.9 80.34 14.95 81.89 12 83.24 5.45L83.24 5.45Q79.44 8.7 77.77 11.33 76.09 13.95 76.09 15.95L76.09 15.95Q76.09 17.9 77.49 17.9L77.49 17.9ZM119.94-11.15Q120.59-11.15 120.97-10.55 121.34-9.95 121.34-8.9L121.34-8.9Q121.34-6.9 120.39-5.8L120.39-5.8Q118.54-3.55 115.17-1.65 111.79 0.25 107.94 0.25L107.94 0.25Q102.69 0.25 99.79-2.6 96.89-5.45 96.89-10.4L96.89-10.4Q96.89-13.85 98.34-16.82 99.79-19.8 102.37-21.55 104.94-23.3 108.19-23.3L108.19-23.3Q111.09-23.3 112.84-21.58 114.59-19.85 114.59-16.9L114.59-16.9Q114.59-13.45 112.12-10.98 109.64-8.5 103.74-7.05L103.74-7.05Q104.99-4.75 108.49-4.75L108.49-4.75Q110.74-4.75 113.62-6.33 116.49-7.9 118.59-10.45L118.59-10.45Q119.19-11.15 119.94-11.15L119.94-11.15ZM107.34-18.4Q105.49-18.4 104.22-16.25 102.94-14.1 102.94-11.05L102.94-11.05 102.94-10.95Q105.89-11.65 107.59-13.05 109.29-14.45 109.29-16.3L109.29-16.3Q109.29-17.25 108.77-17.82 108.24-18.4 107.34-18.4L107.34-18.4ZM126.84 0.25Q121.94 0.25 119.21-2.53 116.49-5.3 116.49-9.85L116.49-9.85Q116.49-13.9 118.09-16.95 119.69-20 122.24-21.65 124.79-23.3 127.59-23.3L127.59-23.3Q130.34-23.3 131.86-21.68 133.39-20.05 133.39-17.5L133.39-17.5Q133.39-15.4 132.46-13.95 131.54-12.5 130.04-12.5L130.04-12.5Q129.09-12.5 128.51-12.95 127.94-13.4 127.94-14.2L127.94-14.2Q127.94-14.55 128.04-15 128.14-15.45 128.19-15.65L128.19-15.65Q128.44-16.4 128.44-17.05L128.44-17.05Q128.44-17.7 128.11-18.05 127.79-18.4 127.19-18.4L127.19-18.4Q126.04-18.4 125.04-17.38 124.04-16.35 123.44-14.6 122.84-12.85 122.84-10.75L122.84-10.75Q122.84-4.95 127.89-4.95L127.89-4.95Q129.94-4.95 132.31-6.33 134.69-7.7 136.99-10.45L136.99-10.45Q137.59-11.15 138.34-11.15L138.34-11.15Q138.99-11.15 139.36-10.55 139.74-9.95 139.74-8.9L139.74-8.9Q139.74-7 138.79-5.8L138.79-5.8Q136.44-2.9 133.16-1.33 129.89 0.25 126.84 0.25L126.84 0.25ZM158.24-11.15Q158.89-11.15 159.26-10.55 159.64-9.95 159.64-8.9L159.64-8.9Q159.64-6.9 158.69-5.8L158.69-5.8Q156.54-3.15 153.99-1.45 151.44 0.25 148.14 0.25L148.14 0.25Q137.94 0.25 137.94-14.1L137.94-14.1Q137.94-16.3 138.09-18.55L138.09-18.55 136.14-18.55Q134.64-18.55 134.11-19.1 133.59-19.65 133.59-20.85L133.59-20.85Q133.59-23.65 135.84-23.65L135.84-23.65 138.69-23.65Q139.54-29.15 141.29-33.7 143.04-38.25 145.51-40.95 147.99-43.65 150.84-43.65L150.84-43.65Q152.94-43.65 154.14-41.8 155.34-39.95 155.34-37.15L155.34-37.15Q155.34-29.4 148.84-23.65L148.84-23.65 154.44-23.65Q155.24-23.65 155.59-23.3 155.94-22.95 155.94-22L155.94-22Q155.94-18.55 150.29-18.55L150.29-18.55 144.19-18.55Q144.09-16.05 144.09-14.65L144.09-14.65Q144.09-9.45 145.31-7.35 146.54-5.25 149.19-5.25L149.19-5.25Q151.34-5.25 152.99-6.55 154.64-7.85 156.89-10.45L156.89-10.45Q157.49-11.15 158.24-11.15L158.24-11.15ZM149.49-38.85Q148.74-38.85 147.81-36.98 146.89-35.1 146.06-31.78 145.24-28.45 144.69-24.4L144.69-24.4Q147.64-26.95 149.11-30.13 150.59-33.3 150.59-35.9L150.59-35.9Q150.59-38.85 149.49-38.85L149.49-38.85ZM196.58-11.15Q197.23-11.15 197.61-10.55 197.98-9.95 197.98-8.9L197.98-8.9Q197.98-6.9 197.03-5.8L197.03-5.8Q194.73-3.15 192.31-1.45 189.88 0.25 186.78 0.25L186.78 0.25Q184.23 0.25 182.93-1.23 181.63-2.7 181.63-5.5L181.63-5.5Q181.63-6.9 182.33-10.5L182.33-10.5Q182.98-13.65 182.98-14.85L182.98-14.85Q182.98-15.65 182.43-15.65L182.43-15.65Q181.78-15.65 180.58-13.98 179.38-12.3 178.18-9.55 176.98-6.8 176.23-3.75L176.23-3.75Q175.28 0.25 171.53 0.25L171.53 0.25Q170.03 0.25 169.56-0.83 169.08-1.9 169.08-4.7L169.08-4.7Q169.08-6.3 169.13-7.25L169.13-7.25 169.18-11.25Q169.18-18.95 170.76-27.3 172.33-35.65 175.41-41.33 178.48-47 182.78-47L182.78-47Q185.08-47 186.51-45.03 187.93-43.05 187.93-39.9L187.93-39.9Q187.93-34.85 184.98-29.43 182.03-24 175.38-16.75L175.38-16.75Q175.23-14.15 175.23-11.4L175.23-11.4Q176.88-15.65 178.91-18.32 180.93-21 182.91-22.15 184.88-23.3 186.53-23.3L186.53-23.3Q189.78-23.3 189.78-20.05L189.78-20.05Q189.78-18.1 188.68-13L188.68-13Q187.73-8.65 187.73-7.25L187.73-7.25Q187.73-5.25 189.18-5.25L189.18-5.25Q190.18-5.25 191.56-6.48 192.93-7.7 195.23-10.45L195.23-10.45Q195.83-11.15 196.58-11.15L196.58-11.15ZM181.73-42.05Q180.83-42.05 179.73-39.48 178.63-36.9 177.61-32.52 176.58-28.15 175.93-23L175.93-23Q179.03-26.65 181.06-30.95 183.08-35.25 183.08-38.75L183.08-38.75Q183.08-40.35 182.73-41.2 182.38-42.05 181.73-42.05L181.73-42.05ZM199.03 0.25Q196.78 0.25 195.35-1.83 193.93-3.9 193.93-7L193.93-7Q193.93-10.75 194.43-13.88 194.93-17 196.08-20.5L196.08-20.5Q196.58-22 197.48-22.65 198.38-23.3 200.33-23.3L200.33-23.3Q201.43-23.3 201.85-22.95 202.28-22.6 202.28-21.9L202.28-21.9Q202.28-21.5 201.73-19.2L201.73-19.2Q201.23-17.35 200.93-15.85L200.93-15.85Q199.93-10.6 199.93-8.85L199.93-8.85Q199.93-7.8 200.18-7.38 200.43-6.95 200.98-6.95L200.98-6.95Q201.73-6.95 202.85-8.45 203.98-9.95 205.25-13 206.53-16.05 207.73-20.5L207.73-20.5Q208.13-22 208.95-22.65 209.78-23.3 211.43-23.3L211.43-23.3Q212.58-23.3 213.03-23.03 213.48-22.75 213.48-22L213.48-22Q213.48-20.75 212.23-15.15L212.23-15.15Q210.83-8.75 210.83-7.25L210.83-7.25Q210.83-6.3 211.23-5.78 211.63-5.25 212.28-5.25L212.28-5.25Q213.28-5.25 214.65-6.48 216.03-7.7 218.33-10.45L218.33-10.45Q218.93-11.15 219.68-11.15L219.68-11.15Q220.33-11.15 220.7-10.55 221.08-9.95 221.08-8.9L221.08-8.9Q221.08-6.9 220.13-5.8L220.13-5.8Q217.98-3.15 215.5-1.45 213.03 0.25 209.88 0.25L209.88 0.25Q207.48 0.25 206.35-1.6 205.23-3.45 205.23-6.8L205.23-6.8Q204.38-3.4 202.68-1.58 200.98 0.25 199.03 0.25L199.03 0.25ZM243.63-15.35Q244.28-15.35 244.63-14.7 244.98-14.05 244.98-13.05L244.98-13.05Q244.98-11.8 244.63-11.13 244.28-10.45 243.53-10.2L243.53-10.2Q240.53-9.15 236.93-9L236.93-9Q235.93-4.85 233.15-2.3 230.38 0.25 227.03 0.25L227.03 0.25Q221.98 0.25 219.68-3.6 217.38-7.45 217.38-14.75L217.38-14.75Q217.38-21.2 218.98-28.78 220.58-36.35 223.65-41.68 226.73-47 230.98-47L230.98-47Q233.28-47 234.68-45.03 236.08-43.05 236.08-39.9L236.08-39.9Q236.08-35.8 234.53-31.75 232.98-27.7 229.38-23.25L229.38-23.25Q232.73-23 234.83-20.48 236.93-17.95 237.33-14.25L237.33-14.25Q239.68-14.4 242.93-15.25L242.93-15.25Q243.23-15.35 243.63-15.35L243.63-15.35ZM229.83-42.05Q228.83-42.05 227.65-39.08 226.48-36.1 225.48-31 224.48-25.9 223.98-19.85L223.98-19.85Q227.28-25.9 229.25-30.53 231.23-35.15 231.23-38.75L231.23-38.75Q231.23-40.35 230.85-41.2 230.48-42.05 229.83-42.05L229.83-42.05ZM227.23-5.05Q228.78-5.05 229.98-6.35 231.18-7.65 231.58-10.1L231.58-10.1Q230.03-11.15 229.2-12.85 228.38-14.55 228.38-16.45L228.38-16.45Q228.38-17.15 228.58-18.35L228.58-18.35 228.43-18.35Q226.38-18.35 225-16.32 223.63-14.3 223.63-10.9L223.63-10.9Q223.63-8.05 224.7-6.55 225.78-5.05 227.23-5.05L227.23-5.05Z"
                                                                  opacity="1" transform="matrix(1,0,0,1,0,0)"
                                                                  fill="#9747ff" class="wordmark-text-0"
                                                                  id="text-0" />
                                                        </svg>
                                                    </g>
                                                </svg>
                                            </g>
                                        </svg>
                                    </g>
                                </svg>
                            </g>
                            <g />
                        </svg>
                    </g>
                    <defs />
                </svg>
                <rect width="395.52" height="113.66922126081582" fill="none" stroke="none" visibility="hidden" />
            </g>
        </svg>
    </g>
</svg>